<mxfile host="Electron" agent="Mozilla/5.0 (Windows NT 10.0; Win64; x64) AppleWebKit/537.36 (KHTML, like Gecko) draw.io/24.7.17 Chrome/128.0.6613.36 Electron/32.0.1 Safari/537.36" version="24.7.17">
  <diagram name="Страница — 1" id="-h2iDi2kP4FnzvaloKyw">
    <mxGraphModel dx="627" dy="473" grid="1" gridSize="10" guides="1" tooltips="1" connect="1" arrows="1" fold="1" page="1" pageScale="1" pageWidth="827" pageHeight="1169" math="0" shadow="0">
      <root>
        <mxCell id="0" />
        <mxCell id="1" parent="0" />
        <mxCell id="ssq8KKICh1vqE3y99YZf-1" value="" style="shape=image;aspect=fixed;image=data:image/png,iVBORw0KGgoAAAANSUhEUgAAAXUAAACwCAYAAADwr/57AAAAAXNSR0IArs4c6QAAAARnQU1BAACxjwv8YQUAAAAJcEhZcwAADsMAAA7DAcdvqGQAABkSSURBVHhe7d0LdBRVmgfwrzsISQATAkZEFEmGIAg+cNkjT/eoUcbMepCRrDquy7hH5LgzEXbG53jmOGdZVJxdAjvD4HDWQcczauIA6mlAgjryGF2QuAqyTGKC6AwjD0kC5EFI0ltf1a1OdaWqurr6VVX5/zxXum5V3ap7+9bXN7eruwNffN0cJkk4HKaenh4629FBLc1N1NHeRm1trdTd1cWr++DtM43P1+vc0I79Tc55RB1SP09EdnY2vfOHXTTjumtFjrVdH+6lG/9uhliKjfvF3r17pWuwja655hoaOnSoWNPrzTffpNtuu03+d9KweioqGkuHDx+mMdOl47S2iq2Mnf7ySxo6YQLt2biR/hq8Ti6nrz/R+sfeocKHH6SZw0VWxDe0c/VzdOzGZ2jeeJHFvtlJv3ruON347Dwaz/s/Ku3/iH5/s3ynrMrj81wuneezfc5z9fJjpucZCASk/x+k3z8i5T/6LzRLV66y/gTt+MX7dMEPvkuXK9kGpDIe3iaV8QOaNSLWsnj8z1fRJ9uI7vrhbJI3kbZ5/cc1VPjYD2m2tE31Q2/TRc/8lMqLB1N+fr7cF4PBd2nJsOdo/Mc1JAd1Do7ciU6eOE7Hj39NF180igYPGUJDpDRo0CC5WDCmDcn8NCcbQj64jlFHt+qo+u2NtrV78ZgdJxUXnxWTC98k25C+Knar0HLsGzohjWdzz52hY389QiNHXkiFhZ/Svw7/OY3fu5WCakD/y1eHqfNsO1191dV06ZgxNHz4cAR0D0p33wawZNQhvd5JzV5Y4pBIEXmFw6l45HC66JIxdPmVV9OZ9g5qaGiR2jUgx/JAw1++CfMIvbOjjSZecYXYDdzA7InXXxNJ6GMAzqid0W5n1VP3izfQ64/n4hcKu9dnIlVoOPgZDc7JpgsvvJCCHe3tdPz4URpbVCRWgxtoOwI/2dqkZ5YPkDZmHTNV1E6vJj2+gLQpQ+wc2qwKelZVGn1ZER09eozapXgePNXcRKMuuohycnLEakgn/ROlJpWdJxvAFdToZDdKMattjS4IK1bb2y1DT7efWfFO2W2mWAZl59AFF42ipqYmCra3t8lviIL7JOsJB4iLGmi1Kd2SGTldKtnNmjt4iDJS59sWEdTdJxPXEYBMHY6mI7CaHcfJi4m6j9l+TuqjK8uqeD2ramnLUJtATU7lSnGcb4ENDgx04S6XDDLqIHY7jSrRzgDgevoOrnZ6s86vjZ7aC0q/n5qSzKhIo+vaaDuzUzKrkmrgwEHU2dlJQbEMGRTrydJSn3BtAkg5fSdVk1N2O6/2GIl0+ljn6qRMifaUtEkvkaaKB9/SGOT/AQBA+l07eSLt3LFdLPW1Q1p37ZXx3Wpue6Q+5coJNGzIoEiC9MPLL2SMdhiqTammPYb614GTYW+sc3U4lLa7m9HhOW/l6jW0cMG9fQI7l8sBnddV/vJXSqbA+2mTXlwj9Y/3HaSmM2fpv9f9lu6Y+x2RC+lg/1kC8IB4g6h+e17W5ukvEDXiqcmMvhy9WPtL1CK0yYi2GPXxzFmz6dfrXooK7Ly/GtB53SxpG5XRqWhP8ZFHHnE2pz7q4ovFI0g17RPG9J3HLAE4lq6OZHUcfcc3o91X3cfOfixW/bTl2C1TMCva6PT0gd0soNvx7LPPOgvq1VWv0d333Cs//uLQoahpGU6cp9Lm/2hJhchV8LLZOgAAL4v1mqGlDexOA7oqrqB+zeTL5QD83js1NO+OcpFL8lcM8LQMp6f+bRnV7t0j5/M8PE/VqOsOH2qklSv+Q17HeHlzzbvyNhCb1YBGnwAcS1dH0h7H6bG0+/EFoiY7Yh1TW47dMnUc7paQuIK6Oqe+/o1NcnBXHWpsjIy4GQd8dbSuDf4/fvRx2vH+e2KJqLGxga6bZv87pvsjtVMYdQ6n1wFAxhl1Xn2A1tJvz8tW29uNpvpy9Lgcu2WZsLM7T7uoI3R1xM7TMHpGZelP0dH0y2Vjx8qjczVwa0fqzGoqZcxY5YvDPvxgFxUVFcuPwZrRE2nVD+Oh7xAAhtSOok+ppD+GGoDtdv54zs/hBWX3dKxORRvQeRpGOxXDgV1/DLVZ1KTnKKhzMOfROQd3vUsuuUT+V123/vUq+V/282efphkzZkYe88gdAFzMYbBzzOh4VhHRJZw2kz6gq/RvnjK7xwhs3rw5fN2sG8SiOZ4f50Cu4qkYDtwc4HmuXUsdsTPtNA3Ptz+05EfySP6Ftc+L3F7qeuilPpFG/Trd1xtA0gJsrM5rdhyr/fT7OLlAHNRPfxi71yrfTj71qknyfejagK7FAf2hBxfR3n0HRI613dvftR/Uk4mD+vzyf4iaT+cR/VdffYWgruG0swCkjIOgZ8qq85odJ1aHV/dL9MKIs56OD8e/VMS/WCQWE8VB3dH0C6Se0ZNslMd9T5+SKRVlAsicdK5Y2/NFkqwImWJy9eUfsI6/GaxkZKQOsZn1SztPfjL7tHo8j1wn4IRRp7J6wpMZgVT641kdIx2d0UEd4z0t/SGSUS2M1F3MqE8Z5XFH0KdkSkWZ4DLxdp54t0+mTBwzRbRVcVItjgdq0kJQdzHtk2UW0AF8Qd/B9Z2bl1PR4dWoqE8OGBWjJjNOqmVUpnYZQd3lzDpFPB1BLUObACxlorPoj6dGvHijnl2x6pbE4yerGa3KUdfh+9R9LlmdCfoJo3CQ7k7k006bjmrJP5IhHoMLaAcG2mTEbgcxKo8TgKl0dpRkHosvCjXZEeuYKYjCiRZpdcrqOgR1l4j1ZBmtT0GfA8gcbSePt3Prt7e7v9nFpeJyknyhJVqc0SlrlxHUPU7tc/pkl9G+nACiGHUSTk7FCqYs0WMksm+KJePU1CbUNyPm1D0EzxSkXbo7ndHxXBycE5GKanE8D4RCofCMGfj6WwAAr9u1axcF28+JJQAA8DzMqQMA+AiCOgCAjyCoAwD4CII6AICP4JZGAACfwNcEAAD4DII6AICPIKgDAPgIgjoAgI8kKajX0OL8fMrXpMU1YhUAAKRNEkfqU2lZbTM1N0updhl9Nn+xFOoBACCdUnNLY9E4uoI+o/pGsQwAACmXulsaa0K0bsEj9GCRvBA9NVO6miKxvnE1lUbWaUf22n1KabW8A+epj3nXUrGukVaXqtuqSZRlWr5CKUO/Pvo4+uWaxer2UorMMVnvY3weVvtEr+utq7Icq14A0H8Fqta/Fb75hlli0diJEyfEI2MjRnwsBaH5tE4sEy2g6uZKKpUfc4BaTiW1NVKQ58chKpPXafN5s8VUWl9BNcoCLS6tp4qacbQqal/N49Ll9NkeotvV/fXlWZavxy8MDxA9rz8Or9Mvq7T5Vvvo1kXOo8HmPtLjUm1djct7pfx8LgQAfGzEiBHikbEdO3bYD+rWhekCDY8kp2zQBKHegL+gupkqOdrL2zxBUqzqtaCamnmlFKjyQ2XSYzIMdONW5VOorJpovuaYhudgUr4Gj7znSycXOS+5HO0LFOP3C0S5fG68g0zNV/aRXsk0ZYhzIbPz4LqZHceirqblRdcLAPwldhxWgnqK5tTn0O1T91Bdg1iOvIlaSyXLtVMOPKIXb65yEoGpJrSOFpSZBKmG1bScqkXwjMW4fK3SSmVdWSifSiMnpnnTt7laKkXgFwo5dnN+LS2bKvKlvzsqpIV189UpEX2wNjsPk+OoTOsau14A0P+kbk69cQtt2DOVSorFchQR7OU3U9fR8t4IL9RQaN0CMo7pe+iJ+dJfABU2gphp+QloqKM9U0tIrpZcRzlXVvRgTW+Q1QZox+dhUtdU1AsAfCOJQV0KQlPESDUy9SJWRdZNoSeuUEeepVRZu4ykFWJ0K6XFi8WUxDqaHxnx8r69bwZOXfa8plwrRuVHv6WofdNz/mfL6PlYBZdW0DJ6gqbwPg/U0RWRkbqV2OdhxriuzssDAP8LvPb7N8O33DhbLBqzM5eTHDyXrL6RqjLKAwDoX+zE4e3bt6do+gUAADLCZUG9lCr7jMiN8gAAwAhG6gAAPoJfPgIA8An5lsac88QSAAB4HqZfAAB8BEEdAMBHENQBAHwEQR0AwEcQ1AEAfARBHQDARwJvvPFG+PrrrxeLxhL97he+d7Knp0f+FwDcp7Ozk4LBIGVnZ4sc5/g67+7uFkv9VzLblNmJw++//356gnpXVxcNHjyYBgwYIHIAwE1aW1upra2NcnNzRY5zHNCHDh3a7693btPTp08npU2Z64J6Xl4egjqAS3EAOnXqVFICEF/vBQUFFAgERE7/1NHRQU1NTWkP6viaAAAAn5C/JkA8BgAAH0BQBwDwEQR1AAAfQVAHAPARBHUAAB9BUAcA8BHc0ggA4BO4pREAwGdcH9Q/37ySHpgRkD+dpqQZ9MDKzfS5WK/ntu3NoF4K1EuRqXqlm9fb0RPtvmHDhnBzc7Nl+vzzzw3z7aYTJ06Ez507J/1lEJ/6yuk8N2ScFm4SW/Vy2/ZmUC8F6qXIVL20zpw5Ez5y5Ijh9Rtv4uu9p6dHlNzL6+0Y7/bt7e1Ja1NOduIwx3P3BvX6yvB0o8bTpKh2dNv2ZlAvBeqlyFS9dFIe1L3ejg7aHUFdZ9NCTYNNrwxvqufc+nDl9Oh8OVvitu3NoF4K1EuRqXrppTqoe70dnbQ7gnqUTeGFakNJKeoVcNPC3kakhdKWcqbLtjeDejk7LurlbHv7UhvUvd6Ozto9U0E92H5OOh23+byO9ouHUkPR3G+Lh2zcRJL+DBL2Ux2/Q+G27c2gXqiXLMP1Sjevt6PH2j1IbrxPvf4A/VE87ONbJTRJPCRpqwP10j9u294M6oV6yTJcr3Tzejt6qN2lPxBwnzoAgJ94PKhPp4njxENb3La9GdRLgXopMlWvdPN6O7qj3d0Z1KPmqXSi5rcEt21vBvVSoF6KTNUr3bzejh5rdw+M1H9NGzeLhyxqfmsSlXxLPIxw2/ZmUC8F6qXIVL3Szevt6IF2/91r6w1vjdGm9N/SaHL/Z/2m6PzIvUVu294M6qVAvRSZqldfqb2l0evt6KzdM3FL4/r168MuDepSe1l9JFdO08OVcssq3La9GdRLgXopMlUvvVR/+Mjr7eik3RHU+9C9OurSdH0Lum57M6iXAvVSZKpe0VL+NQGeb8f42z0zQX25m4M6qw9vqlwY/Z0L0xeGK5XP6Bpw2/ZmUC8F6qXIVL16pT6oM6+3Y3zbZyKoL7/vqnCAg/qtt9wgnZ856UmiESNGiKX4dXV1UV5eHg0YMEDkAICbtLa20qlTpyg3N1fkOMfXe0FBgfzVtP1ZR0cHNTU1JaVNmZ04/L3vLcOHjwAA/OLC66+jYFj+KwIAALyurBhfEwAA4CsI6gAAPhIMu/FbGgEAwBGM1AEAfARBHQDARxDUAQB8JPDyq6+HvzPnJrFoLBkfPjp58iSNHTtW5ACAmxw6dIhoYC4V5g8ROc7x9d7S0tLvr3duU/7gUU5OjshJjJ04vG3btvQE9Z6eHnr55ZflJxoA3Ic/8T13/t10fk7in/rG9a7gNr3nnnsoGEzOhIirgjoAACTGblDHnDoAgI8gqAMA+EgwG1+cCADgGxipAwD4CL4mAADARzBSBwDwEQR1AAAfCVRXV4dLS0vForFk3Kf+9ttv0/bt26m9vV3k9MWfvJo6dSrNnTtX5PTl13LihfZEe6I9Ff2hPZntDx+lI6hv2LCBOjs76fbbb5crbIa/SmDz5s00bNgwuuWWW0RuL7+WEy+0J9qToT0Vfm9PlZ04XFNTk57pl48++ojmzJlj2RCMf6x23rx58iuhEb+WEy+0J9qToT0Vfm/PeKUlqPOfKlxRO7jBzP608Ws58XLb+butnHi57fzdVk683Hb+bisn1fBGKQCAjyCoAwD4CII6AICPIKgDAPgIgjoAgI8gqAMA+Ehagno8t/fwjfu8vRG/lhMvt52/28qJl9vO323lxMtt5++2clItq7y8/Kni4mKxaKytrU3+AVWn+IdoP/74Yxo9erRlRbnB3nrrLbr00ktpwoQJIreXX8uJF9oT7cnQngq/t6fKThxubGxM33e/bNy4kXbv3k0dHR0ip6/s7GyaPXu2/KktM34tJ15oT7Qn2lPRH9qT2f2agLQFdQAAcM5V3/0CAACpt273SQR1AAC/KNz6IYI6AIBf3Hon7lMHAPAVBHUAAJ/Y9KoU1Du6xBIAAHjasZuvw0gdAMAvFvxtAYI6AICfIKgDAPhIMBwOi4cAAOBlHM8xUgcA8JHAS7+rCt92681i0Rh/5wAAAGRWrO9+2bp1KwV++0p1+O+/bf2FXgAA4H74Qi8AAJ9BUAcA8BEEdQAAn1i6dB1uaQQA8ItrCLc0AgD4CoI6AICPIKgDAPgIgjoAgI/Y+kQpAMT2ZUs3PRg6SfuOnaOWjh6R27+Vjcuhp2/Kp0vzskSOua6uLvnT652dndTTg/Zjubm5VFBQQAMGDBA51hZffzeCOkAycECf9ZujtHjGcKqYXkD52fgjuFl6YXuxtpl+tu047bjvQsvAzgH9yJEjdMEFF8gfhQ8G0X78wnby5Ek6evQojRo1ylZg56COlgNIgsffaaanbiykn94wAgFd4HZ4SHqBe2hGgfwXjBUOXiNHjqTCwkIEdIHbgV/gOMXz/VtoPYAkCNW1071T8sQSaHFQ33f0nFgy1tbWRvn5+WIJtDio85SUHbf+ZAGCOkCyYIRuLD87i1rOxp4jz8qKPe/eH3G7xPMeA3ohAICPIKgDAPgIgjqAl21ZJP95rqaZqxrECraFFmXNpN6sBlo1U9pu0Rax7DOWbdF/BLPt3f4IAG7DQaxsP62o66bubk51VF5VYhrMtiwqoaryOupeM0fk+EicbeFnGKkDeJI06l66lu4P7aSKYpFFxVTx4gqiJc9JY/RoDatmUhmFaGfvxj4SX1v4HYI6gBc1hKjqg/tprn7QXVxG5dP2U512gBpaRCVV5VTnxxE6i9kWYtpJMzWTlbVICvY8PSU9nrlKelnoxS+AWdppq4ZVNDNqP6af2ope3rJI3V5KaZ7uQlAH8KppE2mceBjtAzpQLx5Kj5cskUaxT1ZIY1cfs2wLadS+k6dkQnQ/TRNTNGtIeQ2YJv1XRaFIcG6g0AHOVUnBuqSKytVpnRDRUhtTOnPWiO35mGuXaoJ/6iGoA3jVBwcoErujTKOJkQgnBbHQCtpfph1V+pCttjBWXj6JljwnRtNbnqOqieU0SVmSYnwd7ecXxhIx6i5bKx1KPZImP6uM1opcWeRNW11+GiCoA3iRPLWwljb2mTznqYhJVKIdlo+roJ0hKXCVqFMHPhNPWxgpe5hW7N8ot82WjfupvKxEyY+4n0LyqFukyDSWOuoXI3KRK0/XlJHYp45W9A770wJBHcCTiqniyftpbZk2UPNUwRKiFQ+LqQWNOWuobsV+KtPNH/tDnG3RRzGVle+npatW0UZ6UvNmq6S4RBq1r7U15RJRf4A+UKeD5BcWOTdtENQBvEoK1DzHW6a+ISf9qS8ND03vcCmu2EmhSUuoxI+BPc620CuueJImLZFeBPq82zqH1tTxXTQlolwpxXrjc4408iepnXnbfzpAk9I8Ug9UVVWFb74ZX70LkIj8Z/5M3f8+QSyBXtZP/o+aHxstlvr64osvaPLkyWIJ9Pbt20eXXXaZWDK3detWjNQBAPwiEAggqAMA+AmCOkAS5GUH5V/6gb6aO7rFI3P8gxB8Fwn0FW+7IKgDJMHkwvNo5S7rX/fpr17c2yL/VqmVgQMHxvXrPv1JU1OT/FuldoTDYQR1gGRYXTaMVv7xGymdxIhd4Hb42TvH6WfvHqenb7L+VSj1J9s4YcSu4Hbg3yflxD8+bVeguro6XFpaKhYBwKkvW7ro8dCfKXSgiYdMIrf/ysvOosmjz6fV8y6hS/Nifx0s//j04cOH5d8r5RFnf8e3T+bl5cl3vdj50WlWU1ODoA4A4Bcc1IP8BkVHR4fIAgAAL+I4zqP7YHZ2Np0+fVpkAwCAF3EcHzRokBLUT506JbIBAMCLOI5zPA8OGTJEfnOira1NrAIAAC/h+M1xnON5kIfrw4YNo4MHD4rVAADgJRy/8/PzlekX/q4Avm2GI31tbS1G7AAAHqHG7dbWVjmoczwPfPrpp2HlS967qbm5WU5jxoyh888/Xw72PEcDAADuwHe5tLS0yHPoPOXCwZwT38vOdzMGPvnkk3BPT498sz//e/bsWfldVN6xvb1dzlPXa8X6cEAyPjyQaBl83olKRj0SkYw6JCrTbZAKnZ2d4pEz/LH2j2o/pSsnXS5yrH26/yD9zZQrxVLyHfusmgovH08Bo6fqvKvEg16N//MCnRo0hYqKiuQBnLHD9IdffkTD7vkuXSV/IFRZLvjHOyLL7/1ij1jufXx1foBXErX8L1W/tIO+ppE06975dDVv81+7aZj8WNlEEZ3Po81U4+Bnpe85fEHbVnxIBd+/k6bkEzXXvkq/qSuh7985haRFafU2WrHhBF0v1gcCLVT7ygv0p/H30V2cQYdo239K+993l7y+l1l+33PgZT5vDt48zZKTkyPPoctTLhzMpfVZWVn0/yr3OGmMP0b8AAAAAElFTkSuQmCC;" vertex="1" parent="1">
          <mxGeometry x="41" y="50" width="373" height="176" as="geometry" />
        </mxCell>
        <mxCell id="ssq8KKICh1vqE3y99YZf-2" value="" style="rounded=0;whiteSpace=wrap;html=1;fillColor=none;strokeColor=none;" vertex="1" parent="1">
          <mxGeometry x="60" y="150" width="330" height="28" as="geometry" />
        </mxCell>
        <mxCell id="ssq8KKICh1vqE3y99YZf-3" value="" style="endArrow=none;html=1;rounded=0;exitX=0;exitY=1;exitDx=0;exitDy=0;entryX=1;entryY=1;entryDx=0;entryDy=0;" edge="1" parent="1" source="ssq8KKICh1vqE3y99YZf-2" target="ssq8KKICh1vqE3y99YZf-2">
          <mxGeometry width="50" height="50" relative="1" as="geometry">
            <mxPoint x="78" y="258" as="sourcePoint" />
            <mxPoint x="128" y="208" as="targetPoint" />
          </mxGeometry>
        </mxCell>
        <mxCell id="ssq8KKICh1vqE3y99YZf-4" value="&lt;font style=&quot;font-size: 20px;&quot; face=&quot;Times New Roman&quot;&gt;3&lt;/font&gt;" style="rounded=0;whiteSpace=wrap;html=1;strokeColor=#000000;" vertex="1" parent="1">
          <mxGeometry x="80" y="250" width="30" height="30" as="geometry" />
        </mxCell>
        <mxCell id="ssq8KKICh1vqE3y99YZf-5" value="" style="endArrow=none;html=1;rounded=0;" edge="1" parent="1" target="ssq8KKICh1vqE3y99YZf-4">
          <mxGeometry width="50" height="50" relative="1" as="geometry">
            <mxPoint x="188" y="178" as="sourcePoint" />
            <mxPoint x="398" y="318" as="targetPoint" />
            <Array as="points">
              <mxPoint x="160" y="265" />
            </Array>
          </mxGeometry>
        </mxCell>
        <mxCell id="ssq8KKICh1vqE3y99YZf-6" value="" style="rounded=0;whiteSpace=wrap;html=1;strokeColor=none;fillColor=none;" vertex="1" parent="1">
          <mxGeometry x="190" y="120" width="20" height="20" as="geometry" />
        </mxCell>
        <mxCell id="ssq8KKICh1vqE3y99YZf-7" value="" style="rounded=0;whiteSpace=wrap;html=1;strokeColor=none;fillColor=none;" vertex="1" parent="1">
          <mxGeometry x="340" y="120" width="20" height="20" as="geometry" />
        </mxCell>
        <mxCell id="ssq8KKICh1vqE3y99YZf-8" value="&lt;font style=&quot;font-size: 20px;&quot; face=&quot;Times New Roman&quot;&gt;1&lt;/font&gt;" style="rounded=0;whiteSpace=wrap;html=1;strokeColor=#000000;" vertex="1" parent="1">
          <mxGeometry x="100" y="10" width="30" height="30" as="geometry" />
        </mxCell>
        <mxCell id="ssq8KKICh1vqE3y99YZf-9" value="" style="endArrow=none;html=1;rounded=0;" edge="1" parent="1" target="ssq8KKICh1vqE3y99YZf-8" source="ssq8KKICh1vqE3y99YZf-6">
          <mxGeometry width="50" height="50" relative="1" as="geometry">
            <mxPoint x="218" y="-102" as="sourcePoint" />
            <mxPoint x="428" y="38" as="targetPoint" />
            <Array as="points">
              <mxPoint x="160" y="25" />
            </Array>
          </mxGeometry>
        </mxCell>
        <mxCell id="ssq8KKICh1vqE3y99YZf-10" value="&lt;font style=&quot;font-size: 20px;&quot; face=&quot;Times New Roman&quot;&gt;2&lt;/font&gt;" style="rounded=0;whiteSpace=wrap;html=1;strokeColor=#000000;" vertex="1" parent="1">
          <mxGeometry x="430" width="30" height="30" as="geometry" />
        </mxCell>
        <mxCell id="ssq8KKICh1vqE3y99YZf-11" value="" style="endArrow=none;html=1;rounded=0;" edge="1" parent="1" target="ssq8KKICh1vqE3y99YZf-10" source="ssq8KKICh1vqE3y99YZf-7">
          <mxGeometry width="50" height="50" relative="1" as="geometry">
            <mxPoint x="376" y="110" as="sourcePoint" />
            <mxPoint x="608" y="28" as="targetPoint" />
            <Array as="points">
              <mxPoint x="380" y="15" />
            </Array>
          </mxGeometry>
        </mxCell>
      </root>
    </mxGraphModel>
  </diagram>
</mxfile>
